<svg width="10" height="18" viewBox="0 0 10 18" fill="none" xmlns="http://www.w3.org/2000/svg">
<path d="M4.167 15.081C3.465 14.985 2.805 14.793 2.187 14.505C1.575 14.217 1.053 13.86 0.621 13.434L1.305 12.417C1.365 12.327 1.443 12.255 1.539 12.201C1.641 12.141 1.746 12.111 1.854 12.111C1.986 12.111 2.127 12.159 2.277 12.255C2.427 12.345 2.598 12.453 2.79 12.579C2.982 12.705 3.201 12.831 3.447 12.957C3.693 13.083 3.984 13.176 4.32 13.236L4.662 9.204C4.236 9.084 3.813 8.943 3.393 8.781C2.979 8.619 2.604 8.406 2.268 8.142C1.938 7.872 1.671 7.533 1.467 7.125C1.263 6.717 1.161 6.207 1.161 5.595C1.161 5.139 1.251 4.695 1.431 4.263C1.617 3.825 1.884 3.435 2.232 3.093C2.58 2.751 3.009 2.469 3.519 2.247C4.029 2.025 4.614 1.899 5.274 1.869L5.373 0.735C5.385 0.590999 5.445 0.461999 5.553 0.348C5.661 0.233999 5.802 0.176999 5.976 0.176999H6.795L6.642 1.95C7.278 2.052 7.827 2.232 8.289 2.49C8.751 2.748 9.153 3.039 9.495 3.363L8.955 4.182C8.871 4.302 8.787 4.392 8.703 4.452C8.619 4.512 8.517 4.542 8.397 4.542C8.307 4.542 8.199 4.515 8.073 4.461C7.953 4.401 7.812 4.332 7.65 4.254C7.494 4.17 7.32 4.086 7.128 4.002C6.936 3.918 6.723 3.849 6.489 3.795L6.174 7.521C6.606 7.653 7.032 7.8 7.452 7.962C7.878 8.118 8.259 8.322 8.595 8.574C8.937 8.826 9.213 9.141 9.423 9.519C9.633 9.891 9.738 10.359 9.738 10.923C9.738 11.481 9.645 12.006 9.459 12.498C9.273 12.984 9 13.416 8.64 13.794C8.286 14.166 7.848 14.469 7.326 14.703C6.804 14.937 6.207 15.078 5.535 15.126L5.427 16.449C5.415 16.587 5.355 16.713 5.247 16.827C5.139 16.947 4.998 17.007 4.824 17.007H4.005L4.167 15.081ZM7.632 11.265C7.632 11.037 7.59 10.839 7.506 10.671C7.428 10.497 7.314 10.344 7.164 10.212C7.02 10.08 6.849 9.966 6.651 9.87C6.453 9.774 6.237 9.687 6.003 9.609L5.697 13.263C6.333 13.179 6.813 12.966 7.137 12.624C7.467 12.276 7.632 11.823 7.632 11.265ZM3.258 5.379C3.258 5.607 3.297 5.808 3.375 5.982C3.453 6.156 3.561 6.312 3.699 6.45C3.843 6.582 4.011 6.702 4.203 6.81C4.395 6.912 4.605 7.005 4.833 7.089L5.112 3.759C4.782 3.801 4.5 3.873 4.266 3.975C4.032 4.071 3.84 4.191 3.69 4.335C3.54 4.479 3.429 4.641 3.357 4.821C3.291 4.995 3.258 5.181 3.258 5.379Z" fill="#AAADC3"/>
</svg>
