<svg width="17" height="18" viewBox="0 0 17 18" fill="none" xmlns="http://www.w3.org/2000/svg">
<path d="M8.67338 7.35982V10.6999H13.4534C13.357 11.5301 12.8369 12.7797 11.6804 13.62C10.948 14.1501 9.9648 14.52 8.67378 14.52C6.38016 14.52 4.43371 12.95 3.73979 10.7802C3.55669 10.2203 3.45056 9.62001 3.45056 9C3.45056 8.37999 3.55669 7.78016 3.73007 7.21984C4.43371 5.05002 6.38016 3.48003 8.67378 3.48003C10.3022 3.48003 11.4008 4.21017 12.0275 4.82009L14.4755 2.34006C12.9714 0.88987 11.0148 0 8.67338 0C5.28116 0 2.35155 2.01976 0.925225 4.96007C0.33744 6.17991 0 7.54981 0 9C0 10.4502 0.33744 11.8201 0.925225 13.0399C2.35155 15.9798 5.28116 18 8.67338 18C11.0152 18 12.9811 17.2001 14.4171 15.8201C16.0553 14.2501 17 11.9403 17 9.20008C17 8.46028 16.9421 7.92014 16.8169 7.36024H8.67338V7.35982Z" fill="#FDFBF3"/>
</svg>
