<svg width="18" height="18" viewBox="0 0 18 18" fill="none" xmlns="http://www.w3.org/2000/svg">
<path d="M14.5185 0H3.48148C1.55556 0 0 1.55556 0 3.48148V7.15344V14.5185C0 16.4339 1.55556 18 3.48148 18H14.5185C16.4339 18 18 16.4444 18 14.5185V7.15344V3.48148C18 1.55556 16.4339 0 14.5185 0ZM15.5132 2.07407H15.9153V2.46561V5.12169L12.8783 5.13228L12.8677 2.08466L15.5132 2.07407ZM6.43386 7.15344C7.00529 6.34921 7.93651 5.83069 8.99471 5.83069C10.0529 5.83069 10.9947 6.34921 11.5661 7.15344C11.9471 7.67196 12.1693 8.30688 12.1693 9.00529C12.1693 10.7513 10.7513 12.1693 9.00529 12.1693C7.25926 12.1693 5.83069 10.7407 5.83069 8.99471C5.83069 8.30688 6.05291 7.67196 6.43386 7.15344ZM16.2434 14.5185C16.2434 15.4709 15.4709 16.2434 14.5185 16.2434H3.48148C2.5291 16.2434 1.75661 15.4709 1.75661 14.5185V7.15344H4.44444C4.21164 7.72487 4.07407 8.34921 4.07407 8.99471C4.07407 11.7037 6.28571 13.9153 8.99471 13.9153C11.7037 13.9153 13.9153 11.7037 13.9153 8.99471C13.9153 8.33862 13.7884 7.71429 13.5556 7.14286H16.2434V14.5185Z" fill="#FDFBF3"/>
</svg>
