<svg width="18" height="17" viewBox="0 0 18 17" fill="none" xmlns="http://www.w3.org/2000/svg">
<path d="M3.95767 17H0.455026V5.45263H3.96825V17H3.95767ZM2.1164 4.00512H2.09524C0.825397 4.00512 0 3.12356 0 2.00256C0 0.859795 0.846561 0 2.13757 0C3.42857 0 4.2328 0.859795 4.25397 2.00256C4.25397 3.12356 3.43915 4.00512 2.1164 4.00512ZM18 17H14.0212V11.025C14.0212 9.45775 13.3968 8.39116 12.0317 8.39116C10.9841 8.39116 10.4021 9.10948 10.1376 9.80602C10.0317 10.0563 10.0529 10.4046 10.0529 10.7529V17H6.10582C6.10582 17 6.15873 6.41037 6.10582 5.45263H10.0423V7.25928C10.2751 6.46479 11.5344 5.33291 13.545 5.33291C16.0423 5.33291 18 6.99808 18 10.5679V17Z" fill="#FDFBF3"/>
</svg>
