<svg width="14" height="15" viewBox="0 0 14 15" fill="none" xmlns="http://www.w3.org/2000/svg">
<path d="M6.561 4.136C6.561 4.628 6.477 5.072 6.309 5.468C6.147 5.864 5.928 6.203 5.652 6.485C5.376 6.761 5.055 6.974 4.689 7.124C4.323 7.274 3.942 7.349 3.546 7.349C3.114 7.349 2.715 7.274 2.349 7.124C1.983 6.974 1.665 6.761 1.395 6.485C1.131 6.203 0.924 5.864 0.774 5.468C0.624 5.072 0.549 4.628 0.549 4.136C0.549 3.632 0.624 3.176 0.774 2.768C0.924 2.36 1.131 2.015 1.395 1.733C1.665 1.451 1.983 1.235 2.349 1.085C2.715 0.928999 3.114 0.850999 3.546 0.850999C3.978 0.850999 4.377 0.928999 4.743 1.085C5.115 1.235 5.436 1.451 5.706 1.733C5.976 2.015 6.186 2.36 6.336 2.768C6.486 3.176 6.561 3.632 6.561 4.136ZM4.842 4.136C4.842 3.788 4.809 3.497 4.743 3.263C4.677 3.029 4.584 2.84 4.464 2.696C4.35 2.552 4.212 2.45 4.05 2.39C3.894 2.324 3.726 2.291 3.546 2.291C3.366 2.291 3.198 2.324 3.042 2.39C2.886 2.45 2.751 2.552 2.637 2.696C2.523 2.84 2.433 3.029 2.367 3.263C2.307 3.497 2.277 3.788 2.277 4.136C2.277 4.472 2.307 4.754 2.367 4.982C2.433 5.204 2.523 5.384 2.637 5.522C2.751 5.66 2.886 5.759 3.042 5.819C3.198 5.879 3.366 5.909 3.546 5.909C3.726 5.909 3.894 5.879 4.05 5.819C4.212 5.759 4.35 5.66 4.464 5.522C4.584 5.384 4.677 5.204 4.743 4.982C4.809 4.754 4.842 4.472 4.842 4.136ZM10.89 1.337C10.962 1.247 11.052 1.166 11.16 1.094C11.268 1.022 11.418 0.985999 11.61 0.985999H13.221L3.555 13.667C3.483 13.763 3.39 13.844 3.276 13.91C3.168 13.97 3.036 14 2.88 14H1.224L10.89 1.337ZM13.905 10.94C13.905 11.432 13.821 11.876 13.653 12.272C13.491 12.668 13.272 13.007 12.996 13.289C12.72 13.565 12.399 13.781 12.033 13.937C11.667 14.087 11.286 14.162 10.89 14.162C10.458 14.162 10.059 14.087 9.693 13.937C9.327 13.781 9.009 13.565 8.739 13.289C8.475 13.007 8.268 12.668 8.118 12.272C7.968 11.876 7.893 11.432 7.893 10.94C7.893 10.436 7.968 9.98 8.118 9.572C8.268 9.164 8.475 8.819 8.739 8.537C9.009 8.255 9.327 8.039 9.693 7.889C10.059 7.733 10.458 7.655 10.89 7.655C11.322 7.655 11.721 7.733 12.087 7.889C12.459 8.039 12.78 8.255 13.05 8.537C13.32 8.819 13.53 9.164 13.68 9.572C13.83 9.98 13.905 10.436 13.905 10.94ZM12.195 10.94C12.195 10.592 12.159 10.301 12.087 10.067C12.021 9.833 11.928 9.644 11.808 9.5C11.694 9.356 11.556 9.254 11.394 9.194C11.238 9.128 11.07 9.095 10.89 9.095C10.71 9.095 10.542 9.128 10.386 9.194C10.23 9.254 10.095 9.356 9.981 9.5C9.873 9.644 9.786 9.833 9.72 10.067C9.654 10.301 9.621 10.592 9.621 10.94C9.621 11.276 9.654 11.558 9.72 11.786C9.786 12.014 9.873 12.197 9.981 12.335C10.095 12.473 10.23 12.572 10.386 12.632C10.542 12.692 10.71 12.722 10.89 12.722C11.07 12.722 11.238 12.692 11.394 12.632C11.556 12.572 11.694 12.473 11.808 12.335C11.928 12.197 12.021 12.014 12.087 11.786C12.159 11.558 12.195 11.276 12.195 10.94Z" fill="#AAADC3"/>
</svg>
