<svg xmlns="http://www.w3.org/2000/svg" width="48" height="30" viewBox="0 0 48 30">
  <path id="testimonial-quote" d="M38.49,0a4.014,4.014,0,0,0-3.6,2.22l-4.26,8.52A5.922,5.922,0,0,0,30,13.41V27a3.009,3.009,0,0,0,3,3H45a3.009,3.009,0,0,0,3-3V15a3.009,3.009,0,0,0-3-3H39l3.09-6.18A4.016,4.016,0,0,0,38.49,0Zm-30,0a4.014,4.014,0,0,0-3.6,2.22L.63,10.74A5.922,5.922,0,0,0,0,13.41V27a3.009,3.009,0,0,0,3,3H15a3.009,3.009,0,0,0,3-3V15a3.009,3.009,0,0,0-3-3H9l3.09-6.18A4.016,4.016,0,0,0,8.49,0Z" transform="translate(0 0)" fill="#f44e65"/>
</svg>
