<svg width="14" height="18" viewBox="0 0 14 18" fill="none" xmlns="http://www.w3.org/2000/svg">
<path d="M0.356395 8.66681C0.0573264 9.13612 -0.0680656 10.6121 0.0361698 11.5906C0.0724384 11.9134 0.132812 12.1828 0.218987 12.3442C0.338334 12.5662 0.539212 12.6995 0.767365 12.7068C0.913914 12.7142 1.00606 12.6891 3.76284 11.82C3.76284 11.82 4.98794 11.4366 4.99398 11.4337C5.2991 11.3566 5.50609 11.0813 5.5257 10.7304C5.54531 10.3692 5.35652 10.0509 5.04234 9.93688C5.04234 9.93688 4.17831 9.59191 4.17676 9.59191C1.21298 8.39423 1.08007 8.34684 0.9305 8.34539C0.700799 8.33817 0.498373 8.45065 0.356395 8.66681ZM6.98485 17.5923C7.03321 17.4561 7.03925 17.3629 7.04677 14.5234C7.04677 14.5234 7.05281 13.2694 7.05429 13.2561C7.0739 12.9482 6.87147 12.6684 6.53916 12.5425C6.19623 12.4137 5.82764 12.4937 5.62072 12.7453C5.62072 12.7453 5.01647 13.4486 5.01344 13.4486C2.93788 15.838 2.8503 15.949 2.80047 16.0896C2.76877 16.1726 2.75816 16.2614 2.76722 16.3502C2.77931 16.4775 2.83821 16.6019 2.93493 16.7188C3.41682 17.2799 5.72496 18.1119 6.46212 17.9875C6.7205 17.9447 6.90627 17.804 6.98485 17.5923ZM11.6692 16.6049C12.3656 16.3325 13.8837 14.4405 13.991 13.7107C14.0287 13.4575 13.9472 13.2384 13.7689 13.0993C13.6526 13.0134 13.5635 12.9793 10.8067 12.0926C10.8067 12.0926 9.59825 11.7018 9.58159 11.6944C9.28857 11.5833 8.9547 11.687 8.73112 11.9579C8.497 12.2362 8.4622 12.6049 8.64952 12.8817L9.1359 13.6575C10.7719 16.2616 10.8972 16.4451 11.0151 16.5355C11.1964 16.676 11.4275 16.6996 11.6692 16.6049ZM10.2447 9.90148C13.3762 9.1583 13.4985 9.11834 13.6208 9.03837C13.8112 8.91252 13.9063 8.7038 13.8897 8.44914C13.8897 8.44177 13.8912 8.43288 13.8897 8.424C13.8097 7.66896 12.4622 5.70889 11.7976 5.39057C11.5619 5.27953 11.3263 5.28697 11.1314 5.41571C11.0106 5.49273 10.9215 5.60962 9.24471 7.85839C9.24471 7.85839 8.48793 8.86953 8.47886 8.87986C8.27946 9.1182 8.27644 9.45869 8.47134 9.75186C8.67377 10.0554 9.01515 10.2019 9.32786 10.1175C9.32786 10.1175 9.31577 10.1397 9.31275 10.1426C9.46674 10.0851 9.74163 10.0184 10.2447 9.90148ZM7.10117 7.36698C7.04677 6.15008 6.67369 0.733153 6.6299 0.482969C6.56643 0.254964 6.38516 0.0936404 6.12539 0.0284754C5.32475 -0.16543 2.26883 0.673913 1.70239 1.24537C1.51957 1.43191 1.45315 1.65991 1.50755 1.8627C1.59668 2.04187 5.38372 7.88064 5.38372 7.88064C5.94264 8.77041 6.40035 8.6312 6.54992 8.58532C6.6978 8.54248 7.15255 8.40326 7.10117 7.36698Z" fill="#FDFBF3"/>
</svg>
