<?xml version="1.0" encoding="UTF-8"?><svg id="Layer_1" data-name="Layer 1" xmlns="http://www.w3.org/2000/svg" viewBox="0 0 101.43 50"><defs><style>.cls-1{fill:none;}.cls-2{fill:#fff;}</style></defs><path class="cls-1" d="M75,1.4c0-.24-.24-.41-.57-.41h-.71l-.14.9h.85A.54.54,0,0,0,75,1.4Z"/><path class="cls-1" d="M28.51,1.3c0-.32-.25-.41-.74-.41h-.62L27,1.8h.85C28.26,1.8,28.51,1.63,28.51,1.3Z"/><path class="cls-1" d="M53.91,34.09H36.3L43.59,9.51h9.59L48.83,25.08h7.54Zm7.62-8.86h8.2c1.8,1.88,2.45,2.29,3.85,2.29S76,26.86,76,25.63c0-.81-.82-1.63-2.13-2L69.4,22.27a6.16,6.16,0,0,1-4.59-6.06C64.81,11.29,70,8,76.77,8,84.81,8,89,11.29,89,16.13v1.15H80.54c-.82-1.64-1.72-2.87-3.6-2.87-1.15,0-2.3.82-2.3,1.8,0,.74.5,1.39,2.38,2l4.42,1.39c3,1,4.76,2.95,4.76,5.9,0,5.25-5.41,9-12.62,9C65.38,34.48,61.94,30.8,61.53,25.23Zm30.89,6.33h0a8.79,8.79,0,0,1,9,9.18c0,5.24-3.68,9.26-8.85,9.26-5.49,0-9.42-3.69-9.42-9.1a9.27,9.27,0,0,1,9.19-9.34ZM85.73,4.1l.74-4h2.72l-.12.74h-2l-.13.81H88.8l-.12.74H86.8l-.17,1h2l-.12.74ZM83.66,0a1.66,1.66,0,0,1,1.56,1.39h-.74a.88.88,0,0,0-.9-.57c-.57,0-1.06.41-1.06,1.56,0,.65.33,1.06.9,1.06a.9.9,0,0,0,1-.74h.74a1.82,1.82,0,0,1-1.72,1.56,1.66,1.66,0,0,1-1.69-1.88C81.73.9,82.6,0,83.66,0ZM80.54.09h.74l-.66,4h-.73Zm-3.37,0L77.58,3,79,.09h.73l-1.88,4H77l-.57-4ZM73,.09h1.62a1,1,0,0,1,1.06,1.06,1.18,1.18,0,0,1-.65,1.07c.25.16.33.16.33.41V3.69a.62.62,0,0,0,.08.41h-.41c-.33,0-.41-.08-.41-.49V2.87a.39.39,0,0,0-.41-.41h-.8L73.17,4.1h-.81Zm-4.7,4,.74-4h2.72l-.12.74h-2l-.13.81H71.4l-.12.74H69.4l-.16,1h2l-.12.74ZM66.61,2.63l-.91-.41a1,1,0,0,1-.57-1A1.26,1.26,0,0,1,66.52,0c1,0,1.31.49,1.56,1.31h-.82c-.08-.41-.33-.49-.82-.49s-.57.08-.57.33.08.33.41.49l.9.49a1,1,0,0,1,.57.9c0,.66-.49,1.15-1.39,1.15A1.42,1.42,0,0,1,64.8,2.87h.74a.75.75,0,0,0,.82.66c.41,0,.74-.17.74-.41S66.93,2.79,66.61,2.63ZM60.38.08a1.63,1.63,0,0,1,1.72,1.4h-.73c-.17-.41-.41-.58-1-.58-.73,0-1.23.41-1.23,1.4a1,1,0,0,0,1.07,1.14c.65,0,.82-.16,1-.65h-.9l.08-.74H62.1L61.69,4.1H61L61,3.94a1.5,1.5,0,0,1-1,.24A1.66,1.66,0,0,1,58.42,2.3,2,2,0,0,1,60.38.08Zm-5.57,0h.74l1.23,2.78L57.19.09H58l-.74,4h-.65L55.31,1.48,54.9,4.1h-.74Zm-2.05,0h.74l-.65,4h-.74Zm-3.6,0h2.78l-.08.74H50.8L50.3,4.1h-.82L50.06.83H49ZM47.27,2.62l-1-.49a1.06,1.06,0,0,1-.57-1A1.17,1.17,0,0,1,47,0a1.54,1.54,0,0,1,1.64,1.31h-.82C47.76.9,47.51.74,47,.74s-.57.16-.57.41.08.33.41.49l.9.41a1.12,1.12,0,0,1,.57,1c0,.66-.49,1.15-1.39,1.15a1.42,1.42,0,0,1-1.56-1.31h.74c.08.49.25.57.9.57.33,0,.58-.08.58-.32A.62.62,0,0,0,47.27,2.62ZM44.15.09h.73l-.65,4h-.74Zm-3.27,0h.73L41,3.36h2l-.16.74H40.22Zm-8.19,4h0L33.42.17h2.71L36,.91H34l-.16.73h1.89l-.12.74H33.75l-.16,1h2l-.12.74Zm-3.28,0L30.07.17h.74l-.49,3.2H32.2L32,4.1ZM26.54.17H28a1.09,1.09,0,0,1,1.23,1.07c0,1.06-.74,1.31-1.56,1.31h-.82L26.62,4.1h-.73Zm-1.63,0h.73L25,4.1h-.74ZM21.3.17h2.86l-.08.74H23L22.44,4.1h-.73L22.28.91H21.21ZM17.86,4.1,18.52.17h.74l-.58,3.19h2l-.17.74ZM14.25,2.54,14.66.16h.74L15,2.7c0,.56.25.82.66.82a.86.86,0,0,0,.73-.65l.5-2.71h.73L17.2,2.79c-.16,1.06-.65,1.47-1.55,1.47C14.58,4.26,14.15,3.73,14.25,2.54ZM9.82.17H11l.33,2.62L12.61.17h1.15L13.1,4.1h-.74l.49-2.86L11.38,4.1h-.66L10.4,1.24,9.9,4.1H9.17Zm-2,9.34H18.35l1.24,10.08L26.14,9.51h11L29.91,34.09H22l2.7-10.65L17.13,34.09H12.37L12,23.68,8,34.09H0Z"/><path class="cls-1" d="M92.57,48.84c4.51,0,7.71-3.53,7.71-8.12a7.64,7.64,0,0,0-8-8,7.92,7.92,0,0,0-8,8.2C84.38,45.72,87.66,48.84,92.57,48.84Zm-.79-11H93.5l1.39,3.69,1.31-3.69h1.72v5.82H96.61V40.33l-1.23,3.36H94.31l-1.22-3.36v3.36H91.78Zm-5.25,0H91v1.07H89.4v4.75H88.09V38.94H86.53Z"/><polygon class="cls-2" points="93.09 40.33 94.31 43.69 95.38 43.69 96.61 40.33 96.61 43.69 97.92 43.69 97.92 37.87 96.2 37.87 94.89 41.56 93.5 37.87 91.78 37.87 91.78 37.87 91.78 43.69 93.09 43.69 93.09 40.33"/><polygon class="cls-2" points="53.17 9.51 43.59 9.51 36.3 34.09 53.91 34.09 56.37 25.08 48.83 25.08 53.17 9.51"/><polygon class="cls-2" points="61.53 25.23 61.53 25.23 61.53 25.23 61.53 25.23"/><polygon class="cls-2" points="88.09 43.69 89.4 43.69 89.4 38.94 91.04 38.94 91.04 37.87 86.53 37.87 86.53 37.87 86.53 37.87 86.53 38.94 88.09 38.94 88.09 43.69"/><path class="cls-2" d="M83.16,40.9c0,5.41,3.93,9.1,9.42,9.1,5.17,0,8.85-4,8.85-9.26a8.79,8.79,0,0,0-9-9.18h-.07A9.27,9.27,0,0,0,83.16,40.9Zm9.17-8.21a7.64,7.64,0,0,1,8,8c0,4.59-3.2,8.12-7.71,8.12-4.91,0-8.19-3.12-8.19-8A7.92,7.92,0,0,1,92.33,32.69Z"/><path class="cls-2" d="M86.2,25.47c0-2.95-1.8-4.92-4.76-5.9L77,18.18c-1.88-.58-2.38-1.23-2.38-2,0-1,1.15-1.8,2.3-1.8,1.88,0,2.78,1.23,3.6,2.87H89V16.13C89,11.29,84.81,8,76.77,8c-6.8,0-12,3.27-12,8.19a6.16,6.16,0,0,0,4.59,6.06l4.51,1.32c1.31.41,2.13,1.23,2.13,2,0,1.23-1,1.89-2.46,1.89s-2-.41-3.85-2.29h-8.2c.41,5.57,3.85,9.25,12,9.25C80.79,34.48,86.2,30.72,86.2,25.47Z"/><polygon class="cls-2" points="25.64 0.17 24.91 0.17 24.25 4.1 24.99 4.1 25.64 0.17"/><polygon class="cls-2" points="35.6 3.37 33.59 3.37 33.76 2.38 35.61 2.38 35.73 1.64 33.84 1.64 34 0.91 36.01 0.91 36.13 0.17 33.42 0.17 32.69 4.1 35.48 4.1 35.6 3.37"/><path class="cls-2" d="M26.62,4.1l.25-1.55h.82c.82,0,1.56-.25,1.56-1.31A1.09,1.09,0,0,0,28,.17H26.54L25.89,4.1h.73ZM27.15.9h.62c.49,0,.74.09.74.41s-.25.5-.66.5H27Z"/><polygon class="cls-2" points="32.2 3.37 30.32 3.37 30.81 0.17 30.07 0.17 29.41 4.1 29.41 4.1 32.04 4.1 32.2 3.37"/><polygon class="cls-2" points="43.01 3.37 41.04 3.37 41.61 0.09 40.88 0.09 40.22 4.1 42.84 4.1 43.01 3.37"/><path class="cls-2" d="M15.65,4.26c.9,0,1.39-.41,1.55-1.47L17.61.16h-.73l-.5,2.71a.86.86,0,0,1-.73.65c-.41,0-.7-.26-.66-.82L15.4.16h-.74l-.41,2.38C14.15,3.73,14.58,4.26,15.65,4.26Z"/><polygon class="cls-2" points="10.4 1.24 10.72 4.1 11.38 4.1 12.85 1.24 12.36 4.1 13.1 4.1 13.76 0.17 12.61 0.17 11.3 2.79 10.97 0.17 9.82 0.17 9.17 4.1 9.9 4.1 10.4 1.24"/><polygon class="cls-2" points="11.96 23.68 12.37 34.09 17.13 34.09 24.66 23.44 21.96 34.09 29.91 34.09 37.12 9.51 26.14 9.51 19.59 19.59 18.35 9.51 7.78 9.51 0 34.09 7.95 34.09 11.96 23.68"/><polygon class="cls-2" points="20.65 3.37 18.68 3.37 19.25 0.17 18.52 0.17 17.86 4.1 20.48 4.1 20.65 3.37"/><polygon class="cls-2" points="44.88 0.09 44.15 0.09 43.49 4.1 44.23 4.1 44.88 0.09"/><polygon class="cls-2" points="21.7 4.1 22.44 4.1 23.02 0.91 24.08 0.91 24.16 0.17 21.3 0.17 21.21 0.91 22.28 0.91 21.7 4.1"/><polygon class="cls-2" points="85.73 4.1 85.73 4.1 85.73 4.1 85.73 4.1"/><path class="cls-2" d="M47,3.44c-.65,0-.82-.08-.9-.57h-.74a1.42,1.42,0,0,0,1.56,1.31c.9,0,1.39-.49,1.39-1.15a1.12,1.12,0,0,0-.57-1l-.9-.41c-.33-.16-.41-.33-.41-.49s.16-.41.57-.41.74.16.82.57h.82A1.54,1.54,0,0,0,47,0a1.17,1.17,0,0,0-1.31,1.15,1.06,1.06,0,0,0,.57,1l1,.49a.62.62,0,0,1,.33.5C47.6,3.36,47.35,3.44,47,3.44Z"/><polygon class="cls-2" points="81.28 0.09 80.54 0.09 79.89 4.1 80.62 4.1 81.28 0.09"/><path class="cls-2" d="M72.36,4.1h.81l.27-1.64h.8a.39.39,0,0,1,.41.41v.74c0,.41.08.49.41.49h.41a.62.62,0,0,1-.08-.41V2.63c0-.25-.08-.25-.33-.41a1.18,1.18,0,0,0,.65-1.07A1,1,0,0,0,74.65.09H73l-.67,4ZM73.69,1h.71c.33,0,.57.17.57.41a.54.54,0,0,1-.57.49h-.85Z"/><path class="cls-2" d="M83.42,4.26A1.82,1.82,0,0,0,85.14,2.7H84.4a.9.9,0,0,1-1,.74c-.57,0-.9-.41-.9-1.06,0-1.15.49-1.56,1.06-1.56a.88.88,0,0,1,.9.57h.74A1.66,1.66,0,0,0,83.66,0c-1.06,0-1.93.9-1.93,2.38A1.66,1.66,0,0,0,83.42,4.26Z"/><polygon class="cls-2" points="71.24 3.37 69.24 3.37 69.4 2.38 71.28 2.38 71.4 1.64 69.53 1.64 69.66 0.82 71.67 0.82 71.79 0.09 69.07 0.09 68.33 4.1 71.12 4.1 71.24 3.37"/><polygon class="cls-2" points="88.64 3.37 86.64 3.37 86.8 2.38 88.68 2.38 88.8 1.64 86.93 1.64 87.06 0.82 89.07 0.82 89.19 0.09 86.47 0.09 85.73 4.1 88.52 4.1 88.64 3.37"/><polygon class="cls-2" points="77.83 4.1 79.71 0.09 78.98 0.09 77.58 2.96 77.17 0.09 76.44 0.09 77.01 4.1 77.83 4.1"/><polygon class="cls-2" points="55.31 1.48 56.62 4.1 57.27 4.1 58.01 0.09 57.19 0.09 56.78 2.87 55.55 0.09 54.81 0.09 54.16 4.1 54.9 4.1 55.31 1.48"/><polygon class="cls-2" points="53.5 0.09 52.76 0.09 52.11 4.1 52.84 4.1 53.5 0.09"/><polygon class="cls-2" points="50.06 0.82 49.48 4.1 50.3 4.1 50.8 0.82 51.86 0.82 51.94 0.09 49.16 0.09 48.99 0.82 48.99 0.82 50.06 0.82"/><path class="cls-2" d="M60.06,4.18a1.5,1.5,0,0,0,1-.24L61,4.1h.73l.41-2H60.38l-.08.74h.9c-.16.49-.33.65-1,.65A1,1,0,0,1,59.15,2.3c0-1,.5-1.4,1.23-1.4.58,0,.82.17,1,.58h.73A1.63,1.63,0,0,0,60.38.08a2,2,0,0,0-2,2.22A1.66,1.66,0,0,0,60.06,4.18Z"/><polygon class="cls-2" points="68.33 4.1 68.33 4.1 68.33 4.1 68.33 4.1"/><path class="cls-2" d="M66.36,3.53a.75.75,0,0,1-.82-.66H64.8a1.42,1.42,0,0,0,1.56,1.31c.9,0,1.39-.49,1.39-1.15a1,1,0,0,0-.57-.9l-.9-.49c-.33-.16-.41-.24-.41-.49s.16-.33.57-.33.74.08.82.49h.82C67.83.49,67.51,0,66.52,0a1.26,1.26,0,0,0-1.39,1.23,1,1,0,0,0,.57,1l.91.41c.32.16.49.32.49.49S66.77,3.53,66.36,3.53Z"/></svg>