<?xml version="1.0" encoding="utf-8"?>
<!-- Generator: Adobe Illustrator 25.2.0, SVG Export Plug-In . SVG Version: 6.00 Build 0)  -->
<svg version="1.1" id="Layer_1" xmlns="http://www.w3.org/2000/svg" xmlns:xlink="http://www.w3.org/1999/xlink" x="0px" y="0px"
	 viewBox="0 0 107.5 50" style="enable-background:new 0 0 107.5 50;" xml:space="preserve">
<style type="text/css">
	.st0{fill:#FFFFFF;}
</style>
<g>
	<path class="st0" d="M44.9,11.9l17.3,14.2V12.3h-4.7v4.1l-12.3-11L10.3,36.5h12.6V50h3.8V33h-5.3L44.9,11.9z M39.8,0L0,36.5h8.5
		L43.7,4.1L39.8,0z"/>
	<path class="st0" d="M14.7,50H21V38.1H14L14.7,50z M41.6,19.3h3.2v3.6h-3.2V19.3z M45.5,19.3h3.2v3.6h-3.2V19.3z M41.6,23.3h3.2
		v3.6h-3.2V23.3z M45.5,23.3h3.2v3.6h-3.2V23.3z M40.4,42.5l-8.6-9v16.4h2.9v-9l8.7,9.1V33.8h-3L40.4,42.5z M44.2,49.7h2.9l0.9-2
		h7.8l1,2h2.8L52,33.3C52,33.3,44.2,49.7,44.2,49.7z M49,45.2l2.9-6l2.7,6C54.6,45.2,49,45.2,49,45.2z M68.3,43.4
		c0.8-0.9,1.4-2.1,1.4-3.6c-0.1-2-0.6-3.6-1.9-4.6c-1-0.8-2.4-1.3-4.3-1.3h-3v15.7h2.6v-13c2-0.1,3.2,0.6,3.7,2.1
		c0.3,0.7,0.2,1.5-0.1,2.3c-0.5,1.3-1.6,2.1-3.1,2.3l4.2,6.3H71l-3.6-5.2L68.3,43.4z M81,36.2c-0.3-0.7-1.2-1.4-2.3-1.9
		c-0.9-0.3-2.1-0.4-3.4-0.3h-2.7v15.7h2.7v-4.8c1.2,0,2.3-0.2,3.5-0.5c1.2-0.6,1.9-1.3,2.3-2c0.4-0.6,0.5-1.8,0.5-3.2
		C81.6,37.8,81.3,36.9,81,36.2z M76.3,42.1h-0.9v-5.7h0.9c1.9,0.2,2.8,1.3,2.9,3C79.1,41.1,78.2,41.9,76.3,42.1z M83.3,33.3v16.5
		h2.8v-8.6l4.6,5.1l4.6-5.1l0.1,8.6h2.6V33.4l-7.4,8.7L83.3,33.3z M99.5,33.9h1.4v3.9h0.6v-3.9h1.5v-0.5h-3.5V33.9z M106.8,33.3
		l-1,3c-0.1,0.3-0.2,0.5-0.2,0.7c0-0.1-0.1-0.3-0.2-0.6l-1-3h-0.8v4.3h0.5v-3.7l1.3,3.7h0.5l1.3-3.7v3.7h0.5v-4.3h-0.7V33.3z"/>
</g>
</svg>
