<?xml version="1.0" encoding="UTF-8"?><svg id="Layer_1" data-name="Layer 1" xmlns="http://www.w3.org/2000/svg" viewBox="0 0 46.8 50"><defs><style>.cls-1{fill:none;}</style></defs><path class="cls-1" d="M30.66,44.39a2.29,2.29,0,0,0-2.25,2.4,2.26,2.26,0,1,0,4.5,0A2.29,2.29,0,0,0,30.66,44.39Z"/><polygon class="cls-1" points="13.57 47.22 15.37 47.22 14.47 44.67 13.57 47.22"/><path class="cls-1" d="M0,0H39.59V40.56H0ZM2.33,47.16H1.13v2.7H.31V43.78h2.4c1.5,0,2.47.23,2.47,1.5a1.72,1.72,0,0,1-.9,1.43c1,.67.53,2.32,1,3.15C3.31,49.86,5.33,47.16,2.33,47.16Zm8.39-2.63H7.12v1.88h3.3v.74H7.12v2h3.6v.75H6.37V43.78h4.35Zm5.54,5.32L15.66,48h-2.4l-.67,1.87h-.83l2.33-6.07h.82l2.18,6.07Zm5.86,0h-3.9V43.78H19V49.1h3.15ZM27,44.53h-2.1v5.32h-.75V44.53h-2v-.75H27ZM30.67,50a3.16,3.16,0,0,1-3-3.22,3.1,3.1,0,0,1,3-3.15h0a3.08,3.08,0,0,1,3,3.15A3.15,3.15,0,0,1,30.67,50Zm6.15-2.84H35.7v2.7h-.83V43.78h2.4c1.5,0,2.4.23,2.4,1.5a1.63,1.63,0,0,1-.82,1.43c1,.67.45,2.32,1,3.15C37.8,49.86,39.82,47.16,36.82,47.16Zm6.38-1a3.68,3.68,0,0,1-3.6-3.75,3.55,3.55,0,0,1,3.6-3.59h0a3.66,3.66,0,0,1,3.6,3.67A3.57,3.57,0,0,1,43.2,46.17Z"/><path class="cls-1" d="M37,44.53H35.68v1.88h1.43c.82,0,1.72,0,1.72-1S38.23,44.53,37,44.53Z"/><path class="cls-1" d="M43.12,41.23h-.45v.9h.52c.45,0,.6-.15.6-.45S43.57,41.23,43.12,41.23Z"/><path class="cls-1" d="M32.31,12.22c0-5-3.67-7.2-8.77-7.2a22.48,22.48,0,0,0-2.32.08V20C28,20,32.31,18.29,32.31,12.22Z"/><path class="cls-1" d="M43.19,39.59a2.84,2.84,0,0,0-2.85,2.84h0a3,3,0,0,0,2.85,3A2.86,2.86,0,0,0,46,42.51h0A2.92,2.92,0,0,0,43.19,39.59Zm.74,4.63-.6-1.42h-.67v1.42H42V40.55H43c1,0,1.6.23,1.6,1.05,0,.6-.25.75-.63,1l.68,1.64Z"/><polygon class="cls-1" points="35.99 35.68 35.99 35.67 35.99 35.67 35.99 35.68"/><rect class="cls-1" x="5.7" y="5.08" width="10.95" height="30.59"/><path class="cls-1" d="M2.47,44.53H1.12v1.88H2.54c.83,0,1.73,0,1.73-1S3.67,44.53,2.47,44.53Z"/><polygon class="cls-1" points="21.22 35.67 35.99 35.67 21.22 20.9 21.22 35.67"/><path d="M43.2,38.83h0a3.55,3.55,0,0,0-3.6,3.59,3.68,3.68,0,0,0,3.6,3.75,3.57,3.57,0,0,0,3.6-3.67A3.66,3.66,0,0,0,43.2,38.83ZM46,42.51a2.86,2.86,0,0,1-2.85,2.92,3,3,0,0,1-2.85-3h0a2.84,2.84,0,0,1,2.85-2.84A2.92,2.92,0,0,1,46,42.51Z"/><path d="M38.85,46.71a1.63,1.63,0,0,0,.82-1.43c0-1.27-.9-1.5-2.4-1.5h-2.4v6.07h.83v-2.7h1.12c3,0,1,2.7,3,2.7C39.3,49,39.9,47.38,38.85,46.71Zm-1.74-.3H35.68V44.53H37c1.2,0,1.8,0,1.8.9S37.93,46.41,37.11,46.41Z"/><polygon points="6.37 49.85 10.72 49.85 10.72 49.1 7.12 49.1 7.12 47.15 10.42 47.15 10.42 46.41 7.12 46.41 7.12 44.53 10.72 44.53 10.72 43.78 6.37 43.78 6.37 49.85"/><path d="M14.09,43.78l-2.33,6.07h.83L13.26,48h2.4l.6,1.87h.83l-2.18-6.07Zm-.52,3.44.9-2.55.9,2.55Z"/><path d="M4.28,46.71a1.72,1.72,0,0,0,.9-1.43c0-1.27-1-1.5-2.47-1.5H.31v6.07h.82v-2.7h1.2c3,0,1,2.7,3,2.7C4.81,49,5.33,47.38,4.28,46.71Zm-1.74-.3H1.12V44.53H2.47c1.2,0,1.8,0,1.8.9S3.37,46.41,2.54,46.41Z"/><path d="M39.59,0H0V40.56H39.59ZM16.65,35.67H5.7V5.08h11ZM21.22,5.1A22.48,22.48,0,0,1,23.54,5c5.1,0,8.77,2.17,8.77,7.2,0,6.07-4.35,7.8-11.09,7.8ZM36,35.68H21.22V20.9L36,35.67h0Z"/><path d="M30.67,43.63h0a3.1,3.1,0,0,0-3,3.15,3.16,3.16,0,0,0,3,3.22,3.15,3.15,0,0,0,3-3.22A3.08,3.08,0,0,0,30.67,43.63Zm0,5.63a2.36,2.36,0,0,1-2.25-2.47,2.25,2.25,0,1,1,4.5,0A2.36,2.36,0,0,1,30.66,49.26Z"/><path d="M44.63,41.6c0-.82-.63-1.05-1.6-1.05H42v3.67h.68V42.8h.67l.6,1.42h.75L44,42.58C44.38,42.35,44.63,42.2,44.63,41.6Zm-1.44.53h-.52v-.9h.45c.45,0,.67.08.67.45S43.64,42.13,43.19,42.13Z"/><polygon points="18.97 43.78 18.22 43.78 18.22 49.85 22.12 49.85 22.12 49.1 18.97 49.1 18.97 43.78"/><polygon points="22.12 44.53 24.14 44.53 24.14 49.85 24.89 49.85 24.89 44.53 26.99 44.53 26.99 43.78 22.12 43.78 22.12 44.53"/></svg>